<?xml version="1.0" encoding="UTF-8"?><svg id="logosandtypes_com" xmlns="http://www.w3.org/2000/svg" viewBox="0 0 150 150"><defs><style>.cls-1{fill:#ee6047;}.cls-2{fill:#b3bccd;}.cls-3{fill:none;}.cls-4{fill:#1e2737;}.cls-5{fill:#dcdc5b;}</style></defs><path class="cls-3" d="M0,0H150V150H0V0Z"/><path class="cls-4" d="M57.44,119.55c2.18-7.77,33.49-7.77,35.66,0v-35.94l40.18-40.01c-2.6,1.4-26.39-22.7-24.82-25.39l-33.19,32.95L42.21,18.3c1.51,2.67-22.43,26.66-25.09,25.18l40.32,40.11v35.96Z"/><path class="cls-2" d="M26.08,45.78c10.23,0,18.52-8.25,18.52-18.42S36.31,8.94,26.08,8.94,7.56,17.19,7.56,27.36s8.29,18.42,18.52,18.42Z"/><path class="cls-5" d="M124.54,45.78c10.23,0,18.52-8.25,18.52-18.42s-8.29-18.42-18.52-18.42-18.52,8.25-18.52,18.42,8.29,18.42,18.52,18.42Z"/><path class="cls-1" d="M75.27,142.94c10.23,0,18.52-8.25,18.52-18.42s-8.29-18.42-18.52-18.42-18.52,8.25-18.52,18.42,8.29,18.42,18.52,18.42Z"/></svg>